<mxfile host="Electron" modified="2024-02-11T22:03:46.211Z" agent="Mozilla/5.0 (Windows NT 10.0; Win64; x64) AppleWebKit/537.36 (KHTML, like Gecko) draw.io/23.0.2 Chrome/120.0.6099.109 Electron/28.1.0 Safari/537.36" etag="5QB2E3lkmVI6dpoPqNA2" version="23.0.2" type="device">
  <diagram name="Page-1" id="pAYB-cCGlHyNUEArRRVK">
    <mxGraphModel dx="2049" dy="1194" grid="1" gridSize="10" guides="1" tooltips="1" connect="1" arrows="1" fold="1" page="1" pageScale="1" pageWidth="1200" pageHeight="1920" math="0" shadow="0">
      <root>
        <mxCell id="0" />
        <mxCell id="1" parent="0" />
        <mxCell id="EGb6Kmo6OtdN7Fuaz-Mw-29" style="edgeStyle=orthogonalEdgeStyle;rounded=0;orthogonalLoop=1;jettySize=auto;html=1;entryX=0.5;entryY=0;entryDx=0;entryDy=0;" edge="1" parent="1" source="EGb6Kmo6OtdN7Fuaz-Mw-1" target="EGb6Kmo6OtdN7Fuaz-Mw-2">
          <mxGeometry relative="1" as="geometry" />
        </mxCell>
        <mxCell id="EGb6Kmo6OtdN7Fuaz-Mw-1" value="Start" style="strokeWidth=2;html=1;shape=mxgraph.flowchart.start_1;whiteSpace=wrap;" vertex="1" parent="1">
          <mxGeometry x="445" y="40" width="80" height="40" as="geometry" />
        </mxCell>
        <mxCell id="EGb6Kmo6OtdN7Fuaz-Mw-25" style="edgeStyle=orthogonalEdgeStyle;rounded=0;orthogonalLoop=1;jettySize=auto;html=1;exitX=0.5;exitY=1;exitDx=0;exitDy=0;entryX=0.5;entryY=0;entryDx=0;entryDy=0;" edge="1" parent="1" source="EGb6Kmo6OtdN7Fuaz-Mw-2" target="EGb6Kmo6OtdN7Fuaz-Mw-15">
          <mxGeometry relative="1" as="geometry" />
        </mxCell>
        <mxCell id="EGb6Kmo6OtdN7Fuaz-Mw-2" value="Declarations&lt;br&gt;&lt;span style=&quot;&quot;&gt;&lt;span style=&quot;&quot;&gt;&amp;nbsp; &amp;nbsp; string&amp;nbsp;&lt;/span&gt;&lt;/span&gt;collegeOne = &quot;Harvard&quot;&lt;br&gt;&lt;span style=&quot;&quot;&gt;&lt;span style=&quot;&quot;&gt;&amp;nbsp; &amp;nbsp; string&amp;nbsp;&lt;/span&gt;&lt;/span&gt;collegeTwo = &quot;Princeton&quot;&lt;br&gt;&lt;span style=&quot;&quot;&gt;&lt;span style=&quot;&quot;&gt;&amp;nbsp; &amp;nbsp; string&amp;nbsp;&lt;/span&gt;&lt;/span&gt;collegeThree = &quot;MIT&quot;&lt;br&gt;&amp;nbsp; &amp;nbsp; int COLLEGE_ONE_GPA_REQ&amp;nbsp; = 4.0&lt;br&gt;&amp;nbsp; &amp;nbsp; int COLLEGE_ONE_GPA_REQ&amp;nbsp; = 4.0 &lt;br&gt;&amp;nbsp; &amp;nbsp; int COLLEGE_ONE_GPA_REQ&amp;nbsp; = 4.0&lt;br&gt;&amp;nbsp; &amp;nbsp; int numOfAvailableColleges = 3&lt;br&gt;&amp;nbsp; &amp;nbsp; int numOfWantedApplies&lt;br&gt;&amp;nbsp; &amp;nbsp; string myGPAString&lt;br&gt;&amp;nbsp; &amp;nbsp; int myGPA&lt;br&gt;&amp;nbsp; &amp;nbsp; string decision&lt;br style=&quot;border-color: var(--border-color);&quot;&gt;&#x9;" style="rounded=1;whiteSpace=wrap;html=1;absoluteArcSize=1;arcSize=14;strokeWidth=2;align=left;" vertex="1" parent="1">
          <mxGeometry x="340" y="120" width="290" height="170" as="geometry" />
        </mxCell>
        <mxCell id="EGb6Kmo6OtdN7Fuaz-Mw-5" value="" style="endArrow=none;dashed=1;html=1;dashPattern=1 3;strokeWidth=2;rounded=0;exitX=1;exitY=0.238;exitDx=0;exitDy=0;entryX=0;entryY=0.5;entryDx=0;entryDy=0;exitPerimeter=0;" edge="1" parent="1" source="EGb6Kmo6OtdN7Fuaz-Mw-2" target="EGb6Kmo6OtdN7Fuaz-Mw-6">
          <mxGeometry width="50" height="50" relative="1" as="geometry">
            <mxPoint x="650" y="210" as="sourcePoint" />
            <mxPoint x="710" y="199" as="targetPoint" />
            <Array as="points">
              <mxPoint x="670" y="160" />
            </Array>
          </mxGeometry>
        </mxCell>
        <mxCell id="EGb6Kmo6OtdN7Fuaz-Mw-6" value="Im aware that this part can be improved with a array list but this is just for the assignment" style="rounded=0;whiteSpace=wrap;html=1;absoluteArcSize=1;arcSize=14;strokeWidth=2;" vertex="1" parent="1">
          <mxGeometry x="890" y="110" width="100" height="100" as="geometry" />
        </mxCell>
        <mxCell id="EGb6Kmo6OtdN7Fuaz-Mw-7" value="" style="endArrow=none;dashed=1;html=1;rounded=0;exitX=1.002;exitY=0.76;exitDx=0;exitDy=0;exitPerimeter=0;" edge="1" parent="1" source="EGb6Kmo6OtdN7Fuaz-Mw-2">
          <mxGeometry width="50" height="50" relative="1" as="geometry">
            <mxPoint x="640" y="270" as="sourcePoint" />
            <mxPoint x="730" y="250" as="targetPoint" />
          </mxGeometry>
        </mxCell>
        <mxCell id="EGb6Kmo6OtdN7Fuaz-Mw-8" value="This is where I declared my variables to start off the program" style="rounded=0;whiteSpace=wrap;html=1;absoluteArcSize=1;arcSize=14;strokeWidth=2;" vertex="1" parent="1">
          <mxGeometry x="730" y="220" width="180" height="70" as="geometry" />
        </mxCell>
        <mxCell id="EGb6Kmo6OtdN7Fuaz-Mw-10" value="" style="endArrow=none;dashed=1;html=1;rounded=0;exitX=1;exitY=0.5;exitDx=0;exitDy=0;" edge="1" parent="1">
          <mxGeometry width="50" height="50" relative="1" as="geometry">
            <mxPoint x="690" y="820" as="sourcePoint" />
            <mxPoint x="760" y="820" as="targetPoint" />
          </mxGeometry>
        </mxCell>
        <mxCell id="EGb6Kmo6OtdN7Fuaz-Mw-11" value="Here, I let the user know how many colleges are available and how many are they wanting to apply to." style="rounded=0;whiteSpace=wrap;html=1;absoluteArcSize=1;arcSize=14;strokeWidth=2;" vertex="1" parent="1">
          <mxGeometry x="760" y="810" width="180" height="70" as="geometry" />
        </mxCell>
        <mxCell id="EGb6Kmo6OtdN7Fuaz-Mw-39" style="edgeStyle=orthogonalEdgeStyle;rounded=0;orthogonalLoop=1;jettySize=auto;html=1;exitX=0.5;exitY=1;exitDx=0;exitDy=0;entryX=0.5;entryY=0;entryDx=0;entryDy=0;" edge="1" parent="1" source="EGb6Kmo6OtdN7Fuaz-Mw-13" target="EGb6Kmo6OtdN7Fuaz-Mw-38">
          <mxGeometry relative="1" as="geometry" />
        </mxCell>
        <mxCell id="EGb6Kmo6OtdN7Fuaz-Mw-13" value="Output &quot;Hello, I&#39;m here to help you pick out your favorite top &quot; + numberOfWantedApplies + &quot; colleges out of the&quot; + numOfAvaiableColleges + &quot; listed&quot;&amp;nbsp;" style="shape=parallelogram;html=1;strokeWidth=2;perimeter=parallelogramPerimeter;whiteSpace=wrap;rounded=1;arcSize=12;size=0.23;" vertex="1" parent="1">
          <mxGeometry x="310" y="600" width="350" height="40" as="geometry" />
        </mxCell>
        <mxCell id="EGb6Kmo6OtdN7Fuaz-Mw-17" style="edgeStyle=orthogonalEdgeStyle;rounded=0;orthogonalLoop=1;jettySize=auto;html=1;exitX=0.5;exitY=1;exitDx=0;exitDy=0;entryX=0.5;entryY=0;entryDx=0;entryDy=0;" edge="1" parent="1" source="EGb6Kmo6OtdN7Fuaz-Mw-15" target="EGb6Kmo6OtdN7Fuaz-Mw-16">
          <mxGeometry relative="1" as="geometry" />
        </mxCell>
        <mxCell id="EGb6Kmo6OtdN7Fuaz-Mw-15" value="output &quot;Before we get started with what colleges to apply to I need to know, how many you are looking for?&quot;" style="shape=parallelogram;html=1;strokeWidth=2;perimeter=parallelogramPerimeter;whiteSpace=wrap;rounded=1;arcSize=12;size=0.23;" vertex="1" parent="1">
          <mxGeometry x="345" y="320" width="280" height="60" as="geometry" />
        </mxCell>
        <mxCell id="EGb6Kmo6OtdN7Fuaz-Mw-16" value="input numofWantedApplies" style="shape=parallelogram;html=1;strokeWidth=2;perimeter=parallelogramPerimeter;whiteSpace=wrap;rounded=1;arcSize=12;size=0.23;" vertex="1" parent="1">
          <mxGeometry x="435" y="400" width="100" height="60" as="geometry" />
        </mxCell>
        <mxCell id="EGb6Kmo6OtdN7Fuaz-Mw-20" style="edgeStyle=orthogonalEdgeStyle;rounded=0;orthogonalLoop=1;jettySize=auto;html=1;exitX=1;exitY=0.5;exitDx=0;exitDy=0;exitPerimeter=0;entryX=0.5;entryY=0;entryDx=0;entryDy=0;" edge="1" parent="1" source="EGb6Kmo6OtdN7Fuaz-Mw-18" target="EGb6Kmo6OtdN7Fuaz-Mw-19">
          <mxGeometry relative="1" as="geometry" />
        </mxCell>
        <mxCell id="EGb6Kmo6OtdN7Fuaz-Mw-36" value="True" style="edgeLabel;html=1;align=center;verticalAlign=middle;resizable=0;points=[];" vertex="1" connectable="0" parent="EGb6Kmo6OtdN7Fuaz-Mw-20">
          <mxGeometry x="-0.3156" y="1" relative="1" as="geometry">
            <mxPoint x="1" as="offset" />
          </mxGeometry>
        </mxCell>
        <mxCell id="EGb6Kmo6OtdN7Fuaz-Mw-28" style="edgeStyle=orthogonalEdgeStyle;rounded=0;orthogonalLoop=1;jettySize=auto;html=1;exitX=0.5;exitY=1;exitDx=0;exitDy=0;exitPerimeter=0;" edge="1" parent="1" source="EGb6Kmo6OtdN7Fuaz-Mw-18">
          <mxGeometry relative="1" as="geometry">
            <mxPoint x="485.2857142857142" y="600" as="targetPoint" />
          </mxGeometry>
        </mxCell>
        <mxCell id="EGb6Kmo6OtdN7Fuaz-Mw-37" value="False" style="edgeLabel;html=1;align=center;verticalAlign=middle;resizable=0;points=[];" vertex="1" connectable="0" parent="EGb6Kmo6OtdN7Fuaz-Mw-28">
          <mxGeometry x="0.0194" y="3" relative="1" as="geometry">
            <mxPoint as="offset" />
          </mxGeometry>
        </mxCell>
        <mxCell id="EGb6Kmo6OtdN7Fuaz-Mw-18" value="numOfWantedApplies &amp;gt; numOfAvailableColleges" style="strokeWidth=2;html=1;shape=mxgraph.flowchart.decision;whiteSpace=wrap;" vertex="1" parent="1">
          <mxGeometry x="367.5" y="490" width="235" height="70" as="geometry" />
        </mxCell>
        <mxCell id="EGb6Kmo6OtdN7Fuaz-Mw-31" style="edgeStyle=orthogonalEdgeStyle;rounded=0;orthogonalLoop=1;jettySize=auto;html=1;exitX=0.5;exitY=1;exitDx=0;exitDy=0;entryX=0.5;entryY=0;entryDx=0;entryDy=0;" edge="1" parent="1" source="EGb6Kmo6OtdN7Fuaz-Mw-19" target="EGb6Kmo6OtdN7Fuaz-Mw-26">
          <mxGeometry relative="1" as="geometry" />
        </mxCell>
        <mxCell id="EGb6Kmo6OtdN7Fuaz-Mw-19" value="output &quot;We only have &quot; +&amp;nbsp;numOfAvailableColleges&amp;nbsp;+ &quot; collegs listed&quot;" style="shape=parallelogram;html=1;strokeWidth=2;perimeter=parallelogramPerimeter;whiteSpace=wrap;rounded=1;arcSize=12;size=0.23;" vertex="1" parent="1">
          <mxGeometry x="602.5" y="560" width="207.5" height="30" as="geometry" />
        </mxCell>
        <mxCell id="EGb6Kmo6OtdN7Fuaz-Mw-27" style="edgeStyle=orthogonalEdgeStyle;rounded=0;orthogonalLoop=1;jettySize=auto;html=1;exitX=0.5;exitY=1;exitDx=0;exitDy=0;" edge="1" parent="1" source="EGb6Kmo6OtdN7Fuaz-Mw-21">
          <mxGeometry relative="1" as="geometry">
            <mxPoint x="490" y="480" as="targetPoint" />
            <Array as="points">
              <mxPoint x="706" y="790" />
              <mxPoint x="870" y="790" />
              <mxPoint x="870" y="480" />
            </Array>
          </mxGeometry>
        </mxCell>
        <mxCell id="EGb6Kmo6OtdN7Fuaz-Mw-21" value="input numOfWantedApplies" style="shape=parallelogram;html=1;strokeWidth=2;perimeter=parallelogramPerimeter;whiteSpace=wrap;rounded=1;arcSize=12;size=0.23;" vertex="1" parent="1">
          <mxGeometry x="656" y="710" width="100" height="60" as="geometry" />
        </mxCell>
        <mxCell id="EGb6Kmo6OtdN7Fuaz-Mw-24" style="edgeStyle=orthogonalEdgeStyle;rounded=0;orthogonalLoop=1;jettySize=auto;html=1;exitX=0.5;exitY=1;exitDx=0;exitDy=0;entryX=0.5;entryY=0;entryDx=0;entryDy=0;entryPerimeter=0;" edge="1" parent="1" source="EGb6Kmo6OtdN7Fuaz-Mw-16" target="EGb6Kmo6OtdN7Fuaz-Mw-18">
          <mxGeometry relative="1" as="geometry" />
        </mxCell>
        <mxCell id="EGb6Kmo6OtdN7Fuaz-Mw-32" style="edgeStyle=orthogonalEdgeStyle;rounded=0;orthogonalLoop=1;jettySize=auto;html=1;exitX=0.5;exitY=1;exitDx=0;exitDy=0;entryX=0.5;entryY=0;entryDx=0;entryDy=0;" edge="1" parent="1" source="EGb6Kmo6OtdN7Fuaz-Mw-26" target="EGb6Kmo6OtdN7Fuaz-Mw-21">
          <mxGeometry relative="1" as="geometry" />
        </mxCell>
        <mxCell id="EGb6Kmo6OtdN7Fuaz-Mw-26" value="output &quot;Colleges listed are\n&quot; + collegeOne, collegeTwo, collegeThree" style="shape=parallelogram;html=1;strokeWidth=2;perimeter=parallelogramPerimeter;whiteSpace=wrap;rounded=1;arcSize=12;size=0.23;" vertex="1" parent="1">
          <mxGeometry x="602.5" y="630" width="207" height="60" as="geometry" />
        </mxCell>
        <mxCell id="EGb6Kmo6OtdN7Fuaz-Mw-33" value="" style="endArrow=none;dashed=1;html=1;rounded=0;" edge="1" parent="1">
          <mxGeometry width="50" height="50" relative="1" as="geometry">
            <mxPoint x="560" y="440" as="sourcePoint" />
            <mxPoint x="640" y="440" as="targetPoint" />
          </mxGeometry>
        </mxCell>
        <mxCell id="EGb6Kmo6OtdN7Fuaz-Mw-34" value="priming input for loop" style="rounded=0;whiteSpace=wrap;html=1;absoluteArcSize=1;arcSize=14;strokeWidth=2;" vertex="1" parent="1">
          <mxGeometry x="640" y="410" width="100" height="50" as="geometry" />
        </mxCell>
        <mxCell id="EGb6Kmo6OtdN7Fuaz-Mw-35" value="This loop only occurs of the user inputs &lt;br&gt;a value higher than available collegs" style="strokeWidth=2;html=1;shape=mxgraph.flowchart.annotation_2;align=left;labelPosition=right;pointerEvents=1;" vertex="1" parent="1">
          <mxGeometry x="890" y="480" width="50" height="310" as="geometry" />
        </mxCell>
        <mxCell id="EGb6Kmo6OtdN7Fuaz-Mw-41" style="edgeStyle=orthogonalEdgeStyle;rounded=0;orthogonalLoop=1;jettySize=auto;html=1;exitX=0.5;exitY=1;exitDx=0;exitDy=0;entryX=0.5;entryY=0;entryDx=0;entryDy=0;" edge="1" parent="1" source="EGb6Kmo6OtdN7Fuaz-Mw-38" target="EGb6Kmo6OtdN7Fuaz-Mw-40">
          <mxGeometry relative="1" as="geometry">
            <mxPoint x="484.7931034482758" y="790" as="targetPoint" />
          </mxGeometry>
        </mxCell>
        <mxCell id="EGb6Kmo6OtdN7Fuaz-Mw-38" value="&lt;blockquote style=&quot;margin: 0 0 0 40px; border: none; padding: 0px;&quot;&gt;&lt;div style=&quot;&quot;&gt;&lt;div style=&quot;&quot;&gt;&lt;span style=&quot;background-color: initial;&quot;&gt;output &quot;1. &quot; + collegeOne&lt;/span&gt;&lt;/div&gt;&lt;/div&gt;&lt;span style=&quot;background-color: initial;&quot;&gt;output &quot;Their minimun required gpa is &quot; +&amp;nbsp;&lt;/span&gt;&lt;span style=&quot;background-color: initial;&quot;&gt;COLLEGE_ONE_GPA_REQ&lt;/span&gt;&lt;br&gt;&lt;blockquote style=&quot;margin: 0 0 0 40px; border: none; padding: 0px;&quot;&gt;&lt;div style=&quot;&quot;&gt;&lt;span style=&quot;background-color: initial;&quot;&gt;&lt;div style=&quot;&quot;&gt;&lt;span style=&quot;background-color: initial;&quot;&gt;&lt;br&gt;&lt;/span&gt;&lt;/div&gt;&lt;/span&gt;&lt;/div&gt;&lt;/blockquote&gt;&lt;/blockquote&gt;" style="shape=parallelogram;html=1;strokeWidth=2;perimeter=parallelogramPerimeter;whiteSpace=wrap;rounded=1;arcSize=12;size=0.23;align=left;" vertex="1" parent="1">
          <mxGeometry x="350" y="700" width="270" height="60" as="geometry" />
        </mxCell>
        <mxCell id="EGb6Kmo6OtdN7Fuaz-Mw-44" style="edgeStyle=orthogonalEdgeStyle;rounded=0;orthogonalLoop=1;jettySize=auto;html=1;entryX=0.5;entryY=0;entryDx=0;entryDy=0;" edge="1" parent="1" source="EGb6Kmo6OtdN7Fuaz-Mw-40" target="EGb6Kmo6OtdN7Fuaz-Mw-43">
          <mxGeometry relative="1" as="geometry" />
        </mxCell>
        <mxCell id="EGb6Kmo6OtdN7Fuaz-Mw-40" value="output &quot;Do your want to apply for this college?&quot;" style="shape=parallelogram;html=1;strokeWidth=2;perimeter=parallelogramPerimeter;whiteSpace=wrap;rounded=1;arcSize=12;size=0.23;" vertex="1" parent="1">
          <mxGeometry x="435" y="790" width="100" height="60" as="geometry" />
        </mxCell>
        <mxCell id="EGb6Kmo6OtdN7Fuaz-Mw-43" value="input decision" style="shape=parallelogram;html=1;strokeWidth=2;perimeter=parallelogramPerimeter;whiteSpace=wrap;rounded=1;arcSize=12;size=0.23;" vertex="1" parent="1">
          <mxGeometry x="435" y="870" width="100" height="30" as="geometry" />
        </mxCell>
        <mxCell id="EGb6Kmo6OtdN7Fuaz-Mw-45" value="if decision is yes" style="strokeWidth=2;html=1;shape=mxgraph.flowchart.decision;whiteSpace=wrap;" vertex="1" parent="1">
          <mxGeometry x="435" y="920" width="100" height="100" as="geometry" />
        </mxCell>
        <mxCell id="EGb6Kmo6OtdN7Fuaz-Mw-46" value="Apply to collegeOne" style="whiteSpace=wrap;html=1;strokeWidth=2;" vertex="1" parent="1">
          <mxGeometry x="602.5" y="990" width="120" height="60" as="geometry" />
        </mxCell>
        <mxCell id="EGb6Kmo6OtdN7Fuaz-Mw-50" value="" style="endArrow=none;html=1;rounded=0;entryX=0;entryY=0.5;entryDx=0;entryDy=0;entryPerimeter=0;exitX=0.5;exitY=1;exitDx=0;exitDy=0;" edge="1" parent="1" source="EGb6Kmo6OtdN7Fuaz-Mw-46" target="EGb6Kmo6OtdN7Fuaz-Mw-45">
          <mxGeometry width="50" height="50" relative="1" as="geometry">
            <mxPoint x="560" y="1110" as="sourcePoint" />
            <mxPoint x="610" y="1060" as="targetPoint" />
            <Array as="points">
              <mxPoint x="663" y="1080" />
              <mxPoint x="400" y="1080" />
              <mxPoint x="400" y="970" />
            </Array>
          </mxGeometry>
        </mxCell>
        <mxCell id="EGb6Kmo6OtdN7Fuaz-Mw-52" value="False" style="edgeLabel;html=1;align=center;verticalAlign=middle;resizable=0;points=[];" vertex="1" connectable="0" parent="EGb6Kmo6OtdN7Fuaz-Mw-50">
          <mxGeometry x="0.9285" relative="1" as="geometry">
            <mxPoint as="offset" />
          </mxGeometry>
        </mxCell>
        <mxCell id="EGb6Kmo6OtdN7Fuaz-Mw-53" style="edgeStyle=orthogonalEdgeStyle;rounded=0;orthogonalLoop=1;jettySize=auto;html=1;exitX=0.5;exitY=1;exitDx=0;exitDy=0;entryX=0.5;entryY=0;entryDx=0;entryDy=0;entryPerimeter=0;" edge="1" parent="1" source="EGb6Kmo6OtdN7Fuaz-Mw-43" target="EGb6Kmo6OtdN7Fuaz-Mw-45">
          <mxGeometry relative="1" as="geometry" />
        </mxCell>
        <mxCell id="EGb6Kmo6OtdN7Fuaz-Mw-55" style="edgeStyle=orthogonalEdgeStyle;rounded=0;orthogonalLoop=1;jettySize=auto;html=1;exitX=1;exitY=0.5;exitDx=0;exitDy=0;exitPerimeter=0;entryX=0.479;entryY=-0.007;entryDx=0;entryDy=0;entryPerimeter=0;" edge="1" parent="1" source="EGb6Kmo6OtdN7Fuaz-Mw-45" target="EGb6Kmo6OtdN7Fuaz-Mw-46">
          <mxGeometry relative="1" as="geometry" />
        </mxCell>
        <mxCell id="EGb6Kmo6OtdN7Fuaz-Mw-56" value="True" style="edgeLabel;html=1;align=center;verticalAlign=middle;resizable=0;points=[];" vertex="1" connectable="0" parent="EGb6Kmo6OtdN7Fuaz-Mw-55">
          <mxGeometry x="-0.2779" y="-1" relative="1" as="geometry">
            <mxPoint as="offset" />
          </mxGeometry>
        </mxCell>
        <mxCell id="EGb6Kmo6OtdN7Fuaz-Mw-67" style="edgeStyle=orthogonalEdgeStyle;rounded=0;orthogonalLoop=1;jettySize=auto;html=1;exitX=0.5;exitY=1;exitDx=0;exitDy=0;entryX=0.5;entryY=0;entryDx=0;entryDy=0;" edge="1" parent="1" source="EGb6Kmo6OtdN7Fuaz-Mw-57" target="EGb6Kmo6OtdN7Fuaz-Mw-58">
          <mxGeometry relative="1" as="geometry" />
        </mxCell>
        <mxCell id="EGb6Kmo6OtdN7Fuaz-Mw-57" value="&lt;blockquote style=&quot;margin: 0 0 0 40px; border: none; padding: 0px;&quot;&gt;&lt;div style=&quot;&quot;&gt;&lt;div style=&quot;&quot;&gt;&lt;span style=&quot;background-color: initial;&quot;&gt;output &quot;1. &quot; + collegeTwo&lt;/span&gt;&lt;/div&gt;&lt;/div&gt;&lt;span style=&quot;background-color: initial;&quot;&gt;output &quot;Their minimun required gpa is &quot; +&amp;nbsp;&lt;/span&gt;&lt;span style=&quot;background-color: initial;&quot;&gt;COLLEGE_TWO_GPA_REQ&lt;/span&gt;&lt;br&gt;&lt;blockquote style=&quot;margin: 0 0 0 40px; border: none; padding: 0px;&quot;&gt;&lt;div style=&quot;&quot;&gt;&lt;span style=&quot;background-color: initial;&quot;&gt;&lt;div style=&quot;&quot;&gt;&lt;span style=&quot;background-color: initial;&quot;&gt;&lt;br&gt;&lt;/span&gt;&lt;/div&gt;&lt;/span&gt;&lt;/div&gt;&lt;/blockquote&gt;&lt;/blockquote&gt;" style="shape=parallelogram;html=1;strokeWidth=2;perimeter=parallelogramPerimeter;whiteSpace=wrap;rounded=1;arcSize=12;size=0.23;align=left;" vertex="1" parent="1">
          <mxGeometry x="345" y="1120" width="270" height="60" as="geometry" />
        </mxCell>
        <mxCell id="EGb6Kmo6OtdN7Fuaz-Mw-68" style="edgeStyle=orthogonalEdgeStyle;rounded=0;orthogonalLoop=1;jettySize=auto;html=1;exitX=0.5;exitY=1;exitDx=0;exitDy=0;entryX=0.5;entryY=0;entryDx=0;entryDy=0;" edge="1" parent="1" source="EGb6Kmo6OtdN7Fuaz-Mw-58" target="EGb6Kmo6OtdN7Fuaz-Mw-59">
          <mxGeometry relative="1" as="geometry" />
        </mxCell>
        <mxCell id="EGb6Kmo6OtdN7Fuaz-Mw-58" value="output &quot;Do your want to apply for this college?&quot;" style="shape=parallelogram;html=1;strokeWidth=2;perimeter=parallelogramPerimeter;whiteSpace=wrap;rounded=1;arcSize=12;size=0.23;" vertex="1" parent="1">
          <mxGeometry x="430" y="1210" width="100" height="60" as="geometry" />
        </mxCell>
        <mxCell id="EGb6Kmo6OtdN7Fuaz-Mw-59" value="input decision" style="shape=parallelogram;html=1;strokeWidth=2;perimeter=parallelogramPerimeter;whiteSpace=wrap;rounded=1;arcSize=12;size=0.23;" vertex="1" parent="1">
          <mxGeometry x="430" y="1290" width="100" height="30" as="geometry" />
        </mxCell>
        <mxCell id="EGb6Kmo6OtdN7Fuaz-Mw-60" value="if decision is yes" style="strokeWidth=2;html=1;shape=mxgraph.flowchart.decision;whiteSpace=wrap;" vertex="1" parent="1">
          <mxGeometry x="430" y="1340" width="100" height="100" as="geometry" />
        </mxCell>
        <mxCell id="EGb6Kmo6OtdN7Fuaz-Mw-61" value="Apply to collegeTwo" style="whiteSpace=wrap;html=1;strokeWidth=2;" vertex="1" parent="1">
          <mxGeometry x="597.5" y="1410" width="120" height="60" as="geometry" />
        </mxCell>
        <mxCell id="EGb6Kmo6OtdN7Fuaz-Mw-62" value="" style="endArrow=none;html=1;rounded=0;entryX=0;entryY=0.5;entryDx=0;entryDy=0;entryPerimeter=0;exitX=0.5;exitY=1;exitDx=0;exitDy=0;" edge="1" parent="1" source="EGb6Kmo6OtdN7Fuaz-Mw-61" target="EGb6Kmo6OtdN7Fuaz-Mw-60">
          <mxGeometry width="50" height="50" relative="1" as="geometry">
            <mxPoint x="555" y="1530" as="sourcePoint" />
            <mxPoint x="605" y="1480" as="targetPoint" />
            <Array as="points">
              <mxPoint x="658" y="1500" />
              <mxPoint x="395" y="1500" />
              <mxPoint x="395" y="1390" />
            </Array>
          </mxGeometry>
        </mxCell>
        <mxCell id="EGb6Kmo6OtdN7Fuaz-Mw-63" value="False" style="edgeLabel;html=1;align=center;verticalAlign=middle;resizable=0;points=[];" vertex="1" connectable="0" parent="EGb6Kmo6OtdN7Fuaz-Mw-62">
          <mxGeometry x="0.9285" relative="1" as="geometry">
            <mxPoint as="offset" />
          </mxGeometry>
        </mxCell>
        <mxCell id="EGb6Kmo6OtdN7Fuaz-Mw-64" style="edgeStyle=orthogonalEdgeStyle;rounded=0;orthogonalLoop=1;jettySize=auto;html=1;exitX=1;exitY=0.5;exitDx=0;exitDy=0;exitPerimeter=0;entryX=0.479;entryY=-0.007;entryDx=0;entryDy=0;entryPerimeter=0;" edge="1" parent="1" source="EGb6Kmo6OtdN7Fuaz-Mw-60" target="EGb6Kmo6OtdN7Fuaz-Mw-61">
          <mxGeometry relative="1" as="geometry" />
        </mxCell>
        <mxCell id="EGb6Kmo6OtdN7Fuaz-Mw-65" value="True" style="edgeLabel;html=1;align=center;verticalAlign=middle;resizable=0;points=[];" vertex="1" connectable="0" parent="EGb6Kmo6OtdN7Fuaz-Mw-64">
          <mxGeometry x="-0.2779" y="-1" relative="1" as="geometry">
            <mxPoint as="offset" />
          </mxGeometry>
        </mxCell>
        <mxCell id="EGb6Kmo6OtdN7Fuaz-Mw-66" value="" style="endArrow=classic;html=1;rounded=0;entryX=0.5;entryY=0;entryDx=0;entryDy=0;" edge="1" parent="1" target="EGb6Kmo6OtdN7Fuaz-Mw-57">
          <mxGeometry width="50" height="50" relative="1" as="geometry">
            <mxPoint x="480" y="1080" as="sourcePoint" />
            <mxPoint x="480" y="1110" as="targetPoint" />
          </mxGeometry>
        </mxCell>
        <mxCell id="EGb6Kmo6OtdN7Fuaz-Mw-69" style="edgeStyle=orthogonalEdgeStyle;rounded=0;orthogonalLoop=1;jettySize=auto;html=1;exitX=0.5;exitY=1;exitDx=0;exitDy=0;entryX=0.5;entryY=0;entryDx=0;entryDy=0;entryPerimeter=0;" edge="1" parent="1" source="EGb6Kmo6OtdN7Fuaz-Mw-59" target="EGb6Kmo6OtdN7Fuaz-Mw-60">
          <mxGeometry relative="1" as="geometry" />
        </mxCell>
        <mxCell id="EGb6Kmo6OtdN7Fuaz-Mw-70" style="edgeStyle=orthogonalEdgeStyle;rounded=0;orthogonalLoop=1;jettySize=auto;html=1;exitX=0.5;exitY=1;exitDx=0;exitDy=0;entryX=0.5;entryY=0;entryDx=0;entryDy=0;" edge="1" parent="1" source="EGb6Kmo6OtdN7Fuaz-Mw-71" target="EGb6Kmo6OtdN7Fuaz-Mw-73">
          <mxGeometry relative="1" as="geometry" />
        </mxCell>
        <mxCell id="EGb6Kmo6OtdN7Fuaz-Mw-71" value="&lt;blockquote style=&quot;margin: 0 0 0 40px; border: none; padding: 0px;&quot;&gt;&lt;div style=&quot;&quot;&gt;&lt;div style=&quot;&quot;&gt;&lt;span style=&quot;background-color: initial;&quot;&gt;output &quot;1. &quot; + collegeThree&lt;/span&gt;&lt;/div&gt;&lt;/div&gt;&lt;span style=&quot;background-color: initial;&quot;&gt;output &quot;Their minimun required gpa is &quot; +&amp;nbsp;&lt;/span&gt;&lt;span style=&quot;background-color: initial;&quot;&gt;COLLEGE_THREE_GPA_REQ&lt;/span&gt;&lt;br&gt;&lt;blockquote style=&quot;margin: 0 0 0 40px; border: none; padding: 0px;&quot;&gt;&lt;div style=&quot;&quot;&gt;&lt;span style=&quot;background-color: initial;&quot;&gt;&lt;div style=&quot;&quot;&gt;&lt;span style=&quot;background-color: initial;&quot;&gt;&lt;br&gt;&lt;/span&gt;&lt;/div&gt;&lt;/span&gt;&lt;/div&gt;&lt;/blockquote&gt;&lt;/blockquote&gt;" style="shape=parallelogram;html=1;strokeWidth=2;perimeter=parallelogramPerimeter;whiteSpace=wrap;rounded=1;arcSize=12;size=0.23;align=left;" vertex="1" parent="1">
          <mxGeometry x="345" y="1540" width="270" height="60" as="geometry" />
        </mxCell>
        <mxCell id="EGb6Kmo6OtdN7Fuaz-Mw-72" style="edgeStyle=orthogonalEdgeStyle;rounded=0;orthogonalLoop=1;jettySize=auto;html=1;exitX=0.5;exitY=1;exitDx=0;exitDy=0;entryX=0.5;entryY=0;entryDx=0;entryDy=0;" edge="1" parent="1" source="EGb6Kmo6OtdN7Fuaz-Mw-73" target="EGb6Kmo6OtdN7Fuaz-Mw-74">
          <mxGeometry relative="1" as="geometry" />
        </mxCell>
        <mxCell id="EGb6Kmo6OtdN7Fuaz-Mw-73" value="output &quot;Do your want to apply for this college?&quot;" style="shape=parallelogram;html=1;strokeWidth=2;perimeter=parallelogramPerimeter;whiteSpace=wrap;rounded=1;arcSize=12;size=0.23;" vertex="1" parent="1">
          <mxGeometry x="430" y="1630" width="100" height="60" as="geometry" />
        </mxCell>
        <mxCell id="EGb6Kmo6OtdN7Fuaz-Mw-74" value="input decision" style="shape=parallelogram;html=1;strokeWidth=2;perimeter=parallelogramPerimeter;whiteSpace=wrap;rounded=1;arcSize=12;size=0.23;" vertex="1" parent="1">
          <mxGeometry x="430" y="1710" width="100" height="30" as="geometry" />
        </mxCell>
        <mxCell id="EGb6Kmo6OtdN7Fuaz-Mw-75" value="if decision is yes" style="strokeWidth=2;html=1;shape=mxgraph.flowchart.decision;whiteSpace=wrap;" vertex="1" parent="1">
          <mxGeometry x="430" y="1760" width="100" height="100" as="geometry" />
        </mxCell>
        <mxCell id="EGb6Kmo6OtdN7Fuaz-Mw-76" value="Apply to collegeThree" style="whiteSpace=wrap;html=1;strokeWidth=2;" vertex="1" parent="1">
          <mxGeometry x="597.5" y="1830" width="120" height="60" as="geometry" />
        </mxCell>
        <mxCell id="EGb6Kmo6OtdN7Fuaz-Mw-77" value="" style="endArrow=none;html=1;rounded=0;entryX=0;entryY=0.5;entryDx=0;entryDy=0;entryPerimeter=0;exitX=0.5;exitY=1;exitDx=0;exitDy=0;" edge="1" parent="1" source="EGb6Kmo6OtdN7Fuaz-Mw-76" target="EGb6Kmo6OtdN7Fuaz-Mw-75">
          <mxGeometry width="50" height="50" relative="1" as="geometry">
            <mxPoint x="555" y="1950" as="sourcePoint" />
            <mxPoint x="605" y="1900" as="targetPoint" />
            <Array as="points">
              <mxPoint x="658" y="1920" />
              <mxPoint x="395" y="1920" />
              <mxPoint x="395" y="1810" />
            </Array>
          </mxGeometry>
        </mxCell>
        <mxCell id="EGb6Kmo6OtdN7Fuaz-Mw-78" value="False" style="edgeLabel;html=1;align=center;verticalAlign=middle;resizable=0;points=[];" vertex="1" connectable="0" parent="EGb6Kmo6OtdN7Fuaz-Mw-77">
          <mxGeometry x="0.9285" relative="1" as="geometry">
            <mxPoint as="offset" />
          </mxGeometry>
        </mxCell>
        <mxCell id="EGb6Kmo6OtdN7Fuaz-Mw-79" style="edgeStyle=orthogonalEdgeStyle;rounded=0;orthogonalLoop=1;jettySize=auto;html=1;exitX=1;exitY=0.5;exitDx=0;exitDy=0;exitPerimeter=0;entryX=0.479;entryY=-0.007;entryDx=0;entryDy=0;entryPerimeter=0;" edge="1" parent="1" source="EGb6Kmo6OtdN7Fuaz-Mw-75" target="EGb6Kmo6OtdN7Fuaz-Mw-76">
          <mxGeometry relative="1" as="geometry" />
        </mxCell>
        <mxCell id="EGb6Kmo6OtdN7Fuaz-Mw-80" value="True" style="edgeLabel;html=1;align=center;verticalAlign=middle;resizable=0;points=[];" vertex="1" connectable="0" parent="EGb6Kmo6OtdN7Fuaz-Mw-79">
          <mxGeometry x="-0.2779" y="-1" relative="1" as="geometry">
            <mxPoint as="offset" />
          </mxGeometry>
        </mxCell>
        <mxCell id="EGb6Kmo6OtdN7Fuaz-Mw-81" style="edgeStyle=orthogonalEdgeStyle;rounded=0;orthogonalLoop=1;jettySize=auto;html=1;exitX=0.5;exitY=1;exitDx=0;exitDy=0;entryX=0.5;entryY=0;entryDx=0;entryDy=0;entryPerimeter=0;" edge="1" parent="1" source="EGb6Kmo6OtdN7Fuaz-Mw-74" target="EGb6Kmo6OtdN7Fuaz-Mw-75">
          <mxGeometry relative="1" as="geometry" />
        </mxCell>
        <mxCell id="EGb6Kmo6OtdN7Fuaz-Mw-82" value="" style="endArrow=classic;html=1;rounded=0;entryX=0.5;entryY=0;entryDx=0;entryDy=0;" edge="1" parent="1" target="EGb6Kmo6OtdN7Fuaz-Mw-71">
          <mxGeometry width="50" height="50" relative="1" as="geometry">
            <mxPoint x="480" y="1500" as="sourcePoint" />
            <mxPoint x="330" y="1500" as="targetPoint" />
          </mxGeometry>
        </mxCell>
        <mxCell id="EGb6Kmo6OtdN7Fuaz-Mw-84" value="" style="endArrow=classic;html=1;rounded=0;" edge="1" parent="1">
          <mxGeometry width="50" height="50" relative="1" as="geometry">
            <mxPoint x="480" y="1920" as="sourcePoint" />
            <mxPoint x="480" y="1960" as="targetPoint" />
          </mxGeometry>
        </mxCell>
        <mxCell id="EGb6Kmo6OtdN7Fuaz-Mw-85" value="output Did you enjoy the signup process?" style="shape=parallelogram;html=1;strokeWidth=2;perimeter=parallelogramPerimeter;whiteSpace=wrap;rounded=1;arcSize=12;size=0.23;" vertex="1" parent="1">
          <mxGeometry x="425" y="1960" width="100" height="60" as="geometry" />
        </mxCell>
        <mxCell id="EGb6Kmo6OtdN7Fuaz-Mw-92" style="edgeStyle=orthogonalEdgeStyle;rounded=0;orthogonalLoop=1;jettySize=auto;html=1;exitX=1;exitY=0.5;exitDx=0;exitDy=0;exitPerimeter=0;entryX=0.5;entryY=0;entryDx=0;entryDy=0;" edge="1" parent="1" source="EGb6Kmo6OtdN7Fuaz-Mw-86" target="EGb6Kmo6OtdN7Fuaz-Mw-90">
          <mxGeometry relative="1" as="geometry" />
        </mxCell>
        <mxCell id="EGb6Kmo6OtdN7Fuaz-Mw-96" value="True" style="edgeLabel;html=1;align=center;verticalAlign=middle;resizable=0;points=[];" vertex="1" connectable="0" parent="EGb6Kmo6OtdN7Fuaz-Mw-92">
          <mxGeometry x="-0.2708" y="-2" relative="1" as="geometry">
            <mxPoint as="offset" />
          </mxGeometry>
        </mxCell>
        <mxCell id="EGb6Kmo6OtdN7Fuaz-Mw-94" style="edgeStyle=orthogonalEdgeStyle;rounded=0;orthogonalLoop=1;jettySize=auto;html=1;exitX=0.5;exitY=1;exitDx=0;exitDy=0;exitPerimeter=0;" edge="1" parent="1" source="EGb6Kmo6OtdN7Fuaz-Mw-86">
          <mxGeometry relative="1" as="geometry">
            <mxPoint x="480" y="2200" as="targetPoint" />
          </mxGeometry>
        </mxCell>
        <mxCell id="EGb6Kmo6OtdN7Fuaz-Mw-95" value="False" style="edgeLabel;html=1;align=center;verticalAlign=middle;resizable=0;points=[];" vertex="1" connectable="0" parent="EGb6Kmo6OtdN7Fuaz-Mw-94">
          <mxGeometry x="-0.3532" y="-2" relative="1" as="geometry">
            <mxPoint as="offset" />
          </mxGeometry>
        </mxCell>
        <mxCell id="EGb6Kmo6OtdN7Fuaz-Mw-86" value="if decision is no" style="strokeWidth=2;html=1;shape=mxgraph.flowchart.decision;whiteSpace=wrap;" vertex="1" parent="1">
          <mxGeometry x="430" y="2050" width="100" height="100" as="geometry" />
        </mxCell>
        <mxCell id="EGb6Kmo6OtdN7Fuaz-Mw-87" style="edgeStyle=orthogonalEdgeStyle;rounded=0;orthogonalLoop=1;jettySize=auto;html=1;exitX=0.5;exitY=1;exitDx=0;exitDy=0;entryX=0.5;entryY=0;entryDx=0;entryDy=0;entryPerimeter=0;" edge="1" parent="1" source="EGb6Kmo6OtdN7Fuaz-Mw-85" target="EGb6Kmo6OtdN7Fuaz-Mw-86">
          <mxGeometry relative="1" as="geometry" />
        </mxCell>
        <mxCell id="EGb6Kmo6OtdN7Fuaz-Mw-93" style="edgeStyle=orthogonalEdgeStyle;rounded=0;orthogonalLoop=1;jettySize=auto;html=1;exitX=0.5;exitY=1;exitDx=0;exitDy=0;" edge="1" parent="1" source="EGb6Kmo6OtdN7Fuaz-Mw-90">
          <mxGeometry relative="1" as="geometry">
            <mxPoint x="480" y="2030" as="targetPoint" />
            <Array as="points">
              <mxPoint x="590" y="2180" />
              <mxPoint x="640" y="2180" />
              <mxPoint x="640" y="2030" />
            </Array>
          </mxGeometry>
        </mxCell>
        <mxCell id="EGb6Kmo6OtdN7Fuaz-Mw-90" value="output Error message" style="shape=parallelogram;html=1;strokeWidth=2;perimeter=parallelogramPerimeter;whiteSpace=wrap;rounded=1;arcSize=12;size=0.23;" vertex="1" parent="1">
          <mxGeometry x="540" y="2120" width="100" height="40" as="geometry" />
        </mxCell>
        <mxCell id="EGb6Kmo6OtdN7Fuaz-Mw-99" style="edgeStyle=orthogonalEdgeStyle;rounded=0;orthogonalLoop=1;jettySize=auto;html=1;exitX=0.5;exitY=1;exitDx=0;exitDy=0;entryX=0.5;entryY=0;entryDx=0;entryDy=0;" edge="1" parent="1" source="EGb6Kmo6OtdN7Fuaz-Mw-97" target="EGb6Kmo6OtdN7Fuaz-Mw-98">
          <mxGeometry relative="1" as="geometry" />
        </mxCell>
        <mxCell id="EGb6Kmo6OtdN7Fuaz-Mw-97" value="output Thank you!" style="shape=parallelogram;html=1;strokeWidth=2;perimeter=parallelogramPerimeter;whiteSpace=wrap;rounded=1;arcSize=12;size=0.23;" vertex="1" parent="1">
          <mxGeometry x="425" y="2200" width="100" height="60" as="geometry" />
        </mxCell>
        <mxCell id="EGb6Kmo6OtdN7Fuaz-Mw-98" value="Stop" style="ellipse;whiteSpace=wrap;html=1;" vertex="1" parent="1">
          <mxGeometry x="437.5" y="2320" width="75" height="40" as="geometry" />
        </mxCell>
        <mxCell id="EGb6Kmo6OtdN7Fuaz-Mw-100" value="&lt;font style=&quot;font-size: 23px;&quot;&gt;&lt;b&gt;&lt;font style=&quot;font-size: 23px;&quot;&gt;All this can be modularized&lt;/font&gt;&lt;font style=&quot;font-size: 23px;&quot;&gt;&amp;nbsp;&lt;/font&gt;&lt;/b&gt;&lt;/font&gt;" style="strokeWidth=2;html=1;shape=mxgraph.flowchart.annotation_2;align=left;labelPosition=right;pointerEvents=1;" vertex="1" parent="1">
          <mxGeometry x="780" y="910" width="50" height="1010" as="geometry" />
        </mxCell>
        <mxCell id="EGb6Kmo6OtdN7Fuaz-Mw-101" value="" style="endArrow=none;dashed=1;html=1;rounded=0;" edge="1" parent="1">
          <mxGeometry width="50" height="50" relative="1" as="geometry">
            <mxPoint x="650" y="2110" as="sourcePoint" />
            <mxPoint x="720" y="2110" as="targetPoint" />
          </mxGeometry>
        </mxCell>
        <mxCell id="EGb6Kmo6OtdN7Fuaz-Mw-103" value="A loop to force user to say yes" style="rounded=1;whiteSpace=wrap;html=1;absoluteArcSize=1;arcSize=14;strokeWidth=2;" vertex="1" parent="1">
          <mxGeometry x="723" y="2060" width="100" height="100" as="geometry" />
        </mxCell>
      </root>
    </mxGraphModel>
  </diagram>
</mxfile>
